<svg width="489" height="128" viewBox="0 0 489 128" fill="none" xmlns="http://www.w3.org/2000/svg">
<rect width="128.008" height="128.008" rx="64.0041" fill="black"/>
<g clip-path="url(#clip0_20_3280)">
<path d="M118.975 73.7921L106.044 86.7228L80.1826 60.8624L47.8584 93.1886L9.06641 54.3956L21.9961 41.4659L47.8564 67.3253L80.1826 35.0001L118.975 73.7921Z" fill="white"/>
</g>
<path d="M160.278 52.004L172.266 14.204H184.2L196.134 52.004H188.412L178.368 18.47H178.152L167.892 52.004H160.278ZM166.38 41.15L168.27 35.48H187.548L189.438 41.15H166.38ZM198.015 52.004V25.22H204.225L204.873 31.106H205.089C205.881 29.198 206.745 27.794 207.681 26.894C208.617 25.958 209.679 25.346 210.867 25.058C212.091 24.734 213.459 24.572 214.971 24.572V32.294H212.973C211.749 32.294 210.651 32.438 209.679 32.726C208.743 32.978 207.951 33.41 207.303 34.022C206.655 34.598 206.151 35.372 205.791 36.344C205.467 37.316 205.305 38.486 205.305 39.854V52.004H198.015ZM217.745 52.004V25.22H225.035V52.004H217.745ZM221.417 21.818C220.085 21.818 218.987 21.44 218.123 20.684C217.295 19.892 216.881 18.902 216.881 17.714C216.881 16.526 217.295 15.536 218.123 14.744C218.987 13.952 220.085 13.556 221.417 13.556C222.749 13.556 223.829 13.952 224.657 14.744C225.485 15.536 225.899 16.526 225.899 17.714C225.899 18.866 225.485 19.838 224.657 20.63C223.829 21.422 222.749 21.818 221.417 21.818ZM229.953 52.004V14.204H237.135V29.702H237.351C238.287 28.046 239.511 26.786 241.023 25.922C242.535 25.022 244.317 24.572 246.369 24.572C248.529 24.572 250.365 25.058 251.877 26.03C253.389 26.966 254.541 28.352 255.333 30.188C256.125 32.024 256.521 34.292 256.521 36.992V52.004H249.285V37.64C249.285 35.408 248.835 33.698 247.935 32.51C247.071 31.322 245.667 30.728 243.723 30.728C242.463 30.728 241.347 31.034 240.375 31.646C239.403 32.222 238.629 33.068 238.053 34.184C237.513 35.264 237.243 36.596 237.243 38.18V52.004H229.953ZM268.793 52.652C266.669 52.652 264.905 52.292 263.501 51.572C262.133 50.852 261.125 49.88 260.477 48.656C259.829 47.432 259.505 46.082 259.505 44.606C259.505 42.95 259.919 41.492 260.747 40.232C261.611 38.972 262.907 38 264.635 37.316C266.363 36.596 268.541 36.236 271.169 36.236H277.919C277.919 34.904 277.721 33.806 277.325 32.942C276.965 32.078 276.389 31.43 275.597 30.998C274.841 30.566 273.869 30.35 272.681 30.35C271.277 30.35 270.071 30.674 269.063 31.322C268.091 31.934 267.479 32.906 267.227 34.238H260.153C260.369 32.258 261.017 30.548 262.097 29.108C263.213 27.668 264.671 26.552 266.471 25.76C268.307 24.968 270.377 24.572 272.681 24.572C275.273 24.572 277.505 25.004 279.377 25.868C281.249 26.696 282.689 27.938 283.697 29.594C284.705 31.214 285.209 33.194 285.209 35.534V52.004H279.161L278.405 47.846H278.189C277.613 48.638 276.983 49.34 276.299 49.952C275.651 50.564 274.931 51.068 274.139 51.464C273.347 51.86 272.501 52.148 271.601 52.328C270.701 52.544 269.765 52.652 268.793 52.652ZM271.169 47.036C272.177 47.036 273.041 46.874 273.761 46.55C274.517 46.19 275.165 45.722 275.705 45.146C276.245 44.57 276.659 43.904 276.947 43.148C277.271 42.356 277.487 41.546 277.595 40.718H271.979C270.863 40.718 269.945 40.862 269.225 41.15C268.541 41.402 268.037 41.78 267.713 42.284C267.389 42.752 267.227 43.31 267.227 43.958C267.227 44.606 267.389 45.164 267.713 45.632C268.037 46.1 268.505 46.46 269.117 46.712C269.729 46.928 270.413 47.036 271.169 47.036ZM288.72 52.004V25.22H294.93L295.578 29.594H295.794C296.658 28.01 297.828 26.786 299.304 25.922C300.78 25.022 302.634 24.572 304.866 24.572C307.098 24.572 308.988 25.058 310.536 26.03C312.084 26.966 313.254 28.352 314.046 30.188C314.874 32.024 315.288 34.292 315.288 36.992V52.004H307.998V37.64C307.998 35.408 307.548 33.698 306.648 32.51C305.748 31.322 304.326 30.728 302.382 30.728C301.158 30.728 300.06 31.034 299.088 31.646C298.116 32.222 297.36 33.068 296.82 34.184C296.28 35.264 296.01 36.596 296.01 38.18V52.004H288.72ZM331.022 52.004C329.114 52.004 327.44 51.716 326 51.14C324.596 50.528 323.498 49.538 322.706 48.17C321.914 46.766 321.518 44.858 321.518 42.446V31.052H316.928V25.22H321.518L322.328 17.93H328.808V25.22H335.936V31.052H328.808V42.554C328.808 43.85 329.078 44.75 329.618 45.254C330.158 45.722 331.076 45.956 332.372 45.956H335.774V52.004H331.022ZM162.438 112.004V74.204H175.56C179.952 74.204 183.588 74.996 186.468 76.58C189.348 78.128 191.472 80.324 192.84 83.168C194.244 85.976 194.946 89.288 194.946 93.104C194.946 96.92 194.244 100.25 192.84 103.094C191.472 105.902 189.348 108.098 186.468 109.682C183.624 111.23 179.988 112.004 175.56 112.004H162.438ZM169.728 105.74H175.182C178.278 105.74 180.726 105.236 182.526 104.228C184.326 103.22 185.604 101.78 186.36 99.908C187.116 98 187.494 95.732 187.494 93.104C187.494 90.44 187.116 88.172 186.36 86.3C185.604 84.392 184.326 82.934 182.526 81.926C180.726 80.918 178.278 80.414 175.182 80.414H169.728V105.74ZM211.612 112.652C208.876 112.652 206.446 112.076 204.322 110.924C202.234 109.772 200.596 108.152 199.408 106.064C198.22 103.976 197.626 101.582 197.626 98.882C197.626 96.074 198.202 93.608 199.354 91.484C200.542 89.324 202.18 87.632 204.268 86.408C206.392 85.184 208.84 84.572 211.612 84.572C214.312 84.572 216.67 85.148 218.686 86.3C220.702 87.452 222.286 89.036 223.438 91.052C224.59 93.032 225.166 95.282 225.166 97.802C225.166 98.162 225.148 98.576 225.112 99.044C225.112 99.476 225.094 99.926 225.058 100.394H202.81V95.912H217.768C217.66 94.22 217.03 92.87 215.878 91.862C214.762 90.854 213.358 90.35 211.666 90.35C210.406 90.35 209.254 90.638 208.21 91.214C207.166 91.754 206.338 92.6 205.726 93.752C205.114 94.868 204.808 96.29 204.808 98.018V99.584C204.808 101.06 205.096 102.338 205.672 103.418C206.248 104.462 207.04 105.272 208.048 105.848C209.092 106.424 210.262 106.712 211.558 106.712C212.89 106.712 214.006 106.424 214.906 105.848C215.806 105.236 216.49 104.462 216.958 103.526H224.356C223.852 105.218 223.006 106.766 221.818 108.17C220.63 109.538 219.172 110.636 217.444 111.464C215.716 112.256 213.772 112.652 211.612 112.652ZM239.082 112.652C236.706 112.652 234.6 112.256 232.764 111.464C230.964 110.672 229.506 109.592 228.39 108.224C227.31 106.82 226.68 105.236 226.5 103.472H233.79C233.934 104.12 234.222 104.732 234.654 105.308C235.086 105.884 235.662 106.352 236.382 106.712C237.138 107.036 238.002 107.198 238.974 107.198C239.982 107.198 240.792 107.072 241.404 106.82C242.016 106.532 242.466 106.172 242.754 105.74C243.078 105.308 243.24 104.84 243.24 104.336C243.24 103.652 243.006 103.13 242.538 102.77C242.106 102.374 241.458 102.032 240.594 101.744C239.766 101.456 238.776 101.15 237.624 100.826C236.436 100.502 235.23 100.16 234.006 99.8C232.818 99.44 231.72 98.99 230.712 98.45C229.704 97.874 228.894 97.154 228.282 96.29C227.706 95.39 227.418 94.274 227.418 92.942C227.418 91.394 227.85 89.99 228.714 88.73C229.578 87.47 230.82 86.462 232.44 85.706C234.096 84.95 236.058 84.572 238.326 84.572C241.566 84.572 244.14 85.31 246.048 86.786C247.992 88.262 249.126 90.296 249.45 92.888H242.592C242.412 91.988 241.944 91.286 241.188 90.782C240.468 90.278 239.514 90.026 238.326 90.026C237.066 90.026 236.094 90.278 235.41 90.782C234.762 91.25 234.438 91.826 234.438 92.51C234.438 93.014 234.654 93.446 235.086 93.806C235.518 94.13 236.148 94.436 236.976 94.724C237.84 94.976 238.866 95.264 240.054 95.588C241.962 96.092 243.708 96.632 245.292 97.208C246.876 97.784 248.136 98.576 249.072 99.584C250.008 100.556 250.476 101.942 250.476 103.742C250.512 105.47 250.062 107 249.126 108.332C248.19 109.664 246.876 110.726 245.184 111.518C243.492 112.274 241.458 112.652 239.082 112.652ZM254.013 112.004V85.22H261.303V112.004H254.013ZM257.685 81.818C256.353 81.818 255.255 81.44 254.391 80.684C253.563 79.892 253.149 78.902 253.149 77.714C253.149 76.526 253.563 75.536 254.391 74.744C255.255 73.952 256.353 73.556 257.685 73.556C259.017 73.556 260.097 73.952 260.925 74.744C261.753 75.536 262.167 76.526 262.167 77.714C262.167 78.866 261.753 79.838 260.925 80.63C260.097 81.422 259.017 81.818 257.685 81.818ZM278.533 123.452C275.977 123.452 273.727 123.146 271.783 122.534C269.875 121.922 268.381 121.004 267.301 119.78C266.257 118.592 265.735 117.152 265.735 115.46C265.735 114.2 266.059 113.048 266.707 112.004C267.355 110.924 268.309 109.952 269.569 109.088C270.829 108.188 272.377 107.414 274.213 106.766L276.859 110.384C275.275 110.924 274.123 111.572 273.403 112.328C272.683 113.084 272.323 113.948 272.323 114.92C272.323 115.64 272.575 116.252 273.079 116.756C273.619 117.26 274.357 117.638 275.293 117.89C276.229 118.178 277.309 118.322 278.533 118.322C279.757 118.322 280.783 118.178 281.611 117.89C282.439 117.602 283.069 117.188 283.501 116.648C283.933 116.144 284.149 115.55 284.149 114.866C284.149 113.894 283.807 113.138 283.123 112.598C282.439 112.094 281.107 111.77 279.127 111.626C277.291 111.482 275.671 111.284 274.267 111.032C272.863 110.744 271.621 110.42 270.541 110.06C269.497 109.664 268.597 109.232 267.841 108.764C267.085 108.296 266.473 107.828 266.005 107.36V106.118L271.783 100.178L276.049 101.798L270.217 108.278L272.161 105.038C272.521 105.182 272.899 105.326 273.295 105.47C273.691 105.614 274.177 105.758 274.753 105.902C275.365 106.046 276.121 106.19 277.021 106.334C277.957 106.442 279.127 106.568 280.531 106.712C282.907 106.892 284.851 107.306 286.363 107.954C287.875 108.602 288.991 109.484 289.711 110.6C290.431 111.716 290.791 113.084 290.791 114.704C290.791 116.108 290.341 117.476 289.441 118.808C288.577 120.176 287.245 121.292 285.445 122.156C283.645 123.02 281.341 123.452 278.533 123.452ZM278.587 104.066C276.319 104.066 274.357 103.634 272.701 102.77C271.081 101.906 269.821 100.736 268.921 99.26C268.057 97.784 267.625 96.146 267.625 94.346C267.625 92.546 268.057 90.908 268.921 89.432C269.821 87.956 271.081 86.786 272.701 85.922C274.357 85.022 276.319 84.572 278.587 84.572C280.855 84.572 282.799 85.022 284.419 85.922C286.075 86.786 287.335 87.956 288.199 89.432C289.063 90.908 289.495 92.546 289.495 94.346C289.495 96.146 289.063 97.784 288.199 99.26C287.335 100.736 286.075 101.906 284.419 102.77C282.799 103.634 280.855 104.066 278.587 104.066ZM278.533 98.774C279.973 98.774 281.125 98.414 281.989 97.694C282.889 96.938 283.339 95.822 283.339 94.346C283.339 92.87 282.889 91.772 281.989 91.052C281.125 90.296 279.991 89.918 278.587 89.918C277.147 89.918 275.977 90.296 275.077 91.052C274.213 91.772 273.781 92.87 273.781 94.346C273.781 95.822 274.213 96.938 275.077 97.694C275.977 98.414 277.129 98.774 278.533 98.774ZM282.961 90.134L281.773 85.22H293.005V89.162L282.961 90.134ZM296.05 112.004V85.22H302.26L302.908 89.594H303.124C303.988 88.01 305.158 86.786 306.634 85.922C308.11 85.022 309.964 84.572 312.196 84.572C314.428 84.572 316.318 85.058 317.866 86.03C319.414 86.966 320.584 88.352 321.376 90.188C322.204 92.024 322.618 94.292 322.618 96.992V112.004H315.328V97.64C315.328 95.408 314.878 93.698 313.978 92.51C313.078 91.322 311.656 90.728 309.712 90.728C308.488 90.728 307.39 91.034 306.418 91.646C305.446 92.222 304.69 93.068 304.15 94.184C303.61 95.264 303.34 96.596 303.34 98.18V112.004H296.05ZM349.919 112.652C347.183 112.652 344.735 112.184 342.575 111.248C340.451 110.312 338.777 108.944 337.553 107.144C336.329 105.344 335.681 103.166 335.609 100.61H343.331C343.367 101.726 343.637 102.734 344.141 103.634C344.681 104.534 345.437 105.254 346.409 105.794C347.381 106.298 348.551 106.55 349.919 106.55C351.035 106.55 352.025 106.388 352.889 106.064C353.753 105.704 354.419 105.2 354.887 104.552C355.391 103.868 355.643 103.022 355.643 102.014C355.643 100.934 355.373 100.034 354.833 99.314C354.329 98.594 353.609 97.982 352.673 97.478C351.737 96.938 350.675 96.47 349.487 96.074C348.335 95.642 347.129 95.21 345.869 94.778C342.809 93.734 340.469 92.384 338.849 90.728C337.265 89.072 336.473 86.894 336.473 84.194C336.473 81.998 337.013 80.108 338.093 78.524C339.173 76.94 340.685 75.716 342.629 74.852C344.573 73.988 346.787 73.556 349.271 73.556C351.827 73.556 354.077 74.006 356.021 74.906C357.965 75.77 359.495 77.03 360.611 78.686C361.727 80.342 362.321 82.286 362.393 84.518H354.563C354.527 83.546 354.275 82.7 353.807 81.98C353.375 81.26 352.745 80.684 351.917 80.252C351.125 79.82 350.189 79.604 349.109 79.604C348.173 79.568 347.309 79.712 346.517 80.036C345.761 80.324 345.167 80.774 344.735 81.386C344.303 81.962 344.087 82.736 344.087 83.708C344.087 84.608 344.285 85.364 344.681 85.976C345.113 86.588 345.707 87.128 346.463 87.596C347.255 88.028 348.173 88.46 349.217 88.892C350.297 89.288 351.503 89.72 352.835 90.188C354.743 90.836 356.489 91.61 358.073 92.51C359.657 93.374 360.917 94.508 361.853 95.912C362.825 97.316 363.311 99.134 363.311 101.366C363.311 103.382 362.789 105.254 361.745 106.982C360.737 108.674 359.243 110.042 357.263 111.086C355.283 112.13 352.835 112.652 349.919 112.652ZM378.511 112.004C376.603 112.004 374.929 111.716 373.489 111.14C372.085 110.528 370.987 109.538 370.195 108.17C369.403 106.766 369.007 104.858 369.007 102.446V91.052H364.417V85.22H369.007L369.817 77.93H376.297V85.22H383.425V91.052H376.297V102.554C376.297 103.85 376.567 104.75 377.107 105.254C377.647 105.722 378.565 105.956 379.861 105.956H383.263V112.004H378.511ZM395.483 112.652C393.287 112.652 391.415 112.184 389.867 111.248C388.319 110.312 387.131 108.926 386.303 107.09C385.475 105.218 385.061 102.932 385.061 100.232V85.22H392.297V99.584C392.297 101.816 392.747 103.526 393.647 104.714C394.583 105.902 396.023 106.496 397.967 106.496C399.227 106.496 400.325 106.208 401.261 105.632C402.233 105.02 402.989 104.156 403.529 103.04C404.069 101.924 404.339 100.592 404.339 99.044V85.22H411.629V112.004H405.419L404.771 107.738H404.555C403.727 109.25 402.557 110.456 401.045 111.356C399.569 112.22 397.715 112.652 395.483 112.652ZM427.148 112.652C424.628 112.652 422.432 112.058 420.56 110.87C418.688 109.646 417.23 107.972 416.186 105.848C415.142 103.724 414.62 101.312 414.62 98.612C414.62 95.912 415.142 93.5 416.186 91.376C417.23 89.252 418.706 87.596 420.614 86.408C422.522 85.184 424.79 84.572 427.418 84.572C429.506 84.572 431.306 84.986 432.818 85.814C434.366 86.606 435.59 87.56 436.49 88.676V74.204H443.78V112.004H437.624L437.246 107.306H437.03C436.346 108.422 435.518 109.376 434.546 110.168C433.574 110.96 432.476 111.572 431.252 112.004C430.028 112.436 428.66 112.652 427.148 112.652ZM429.308 106.658C430.784 106.658 432.062 106.316 433.142 105.632C434.258 104.948 435.104 104.012 435.68 102.824C436.292 101.6 436.598 100.178 436.598 98.558C436.598 96.974 436.292 95.588 435.68 94.4C435.104 93.176 434.258 92.222 433.142 91.538C432.026 90.854 430.73 90.512 429.254 90.512C427.814 90.512 426.536 90.854 425.42 91.538C424.34 92.222 423.494 93.176 422.882 94.4C422.306 95.588 422.018 96.974 422.018 98.558C422.018 100.178 422.306 101.6 422.882 102.824C423.494 104.012 424.34 104.948 425.42 105.632C426.536 106.316 427.832 106.658 429.308 106.658ZM448.713 112.004V85.22H456.003V112.004H448.713ZM452.385 81.818C451.053 81.818 449.955 81.44 449.091 80.684C448.263 79.892 447.849 78.902 447.849 77.714C447.849 76.526 448.263 75.536 449.091 74.744C449.955 73.952 451.053 73.556 452.385 73.556C453.717 73.556 454.797 73.952 455.625 74.744C456.453 75.536 456.867 76.526 456.867 77.714C456.867 78.866 456.453 79.838 455.625 80.63C454.797 81.422 453.717 81.818 452.385 81.818ZM473.611 112.652C471.019 112.652 468.679 112.058 466.591 110.87C464.503 109.682 462.847 108.026 461.623 105.902C460.435 103.778 459.841 101.348 459.841 98.612C459.841 95.84 460.453 93.41 461.677 91.322C462.901 89.198 464.557 87.542 466.645 86.354C468.733 85.166 471.055 84.572 473.611 84.572C476.203 84.572 478.543 85.166 480.631 86.354C482.719 87.542 484.357 89.198 485.545 91.322C486.769 93.41 487.381 95.84 487.381 98.612C487.381 101.384 486.769 103.832 485.545 105.956C484.321 108.044 482.665 109.682 480.577 110.87C478.525 112.058 476.203 112.652 473.611 112.652ZM473.557 106.496C474.745 106.496 475.807 106.208 476.743 105.632C477.715 105.056 478.489 104.192 479.065 103.04C479.641 101.852 479.929 100.376 479.929 98.612C479.929 96.848 479.641 95.39 479.065 94.238C478.489 93.05 477.715 92.168 476.743 91.592C475.807 91.016 474.781 90.728 473.665 90.728C472.513 90.728 471.451 91.016 470.479 91.592C469.507 92.168 468.733 93.05 468.157 94.238C467.581 95.39 467.293 96.848 467.293 98.612C467.293 100.376 467.581 101.852 468.157 103.04C468.733 104.192 469.489 105.056 470.425 105.632C471.397 106.208 472.441 106.496 473.557 106.496Z" fill="black"/>
<defs>
<clipPath id="clip0_20_3280">
<rect width="83.8453" height="83.8453" fill="white" transform="translate(22.0811 22.0814)"/>
</clipPath>
</defs>
</svg>
